<?xml version="1.0" encoding="utf-8"?>
<!-- Generator: Adobe Illustrator 25.2.3, SVG Export Plug-In . SVG Version: 6.00 Build 0)  -->
<svg version="1.1" id="Icon_Set_Artwork" xmlns="http://www.w3.org/2000/svg" xmlns:xlink="http://www.w3.org/1999/xlink" x="0px"
	 y="0px" viewBox="0 0 414 414" enable-background="new 0 0 414 414" xml:space="preserve">
<g>
</g>
<path fill="#FFFFFF" d="M366.49,92.4l-52.38,7.48l7.48-52.38l6.01-42.06l-32.26,27.65l-63,54l-4.7,4.03l-0.77,6.14l-0.07,0.53
	C212.13,92.74,196.39,90,180,90c-79.53,0-144,64.47-144,144s64.47,144,144,144s144-64.47,144-144c0-16.39-2.74-32.14-7.79-46.82
	l0.52-0.07l6.14-0.77l4.03-4.7l54-63l27.65-32.26L366.49,92.4z"/>
<g>
	<path fill="#5B9DD9" d="M296.43,126.57c0.03-1.6-0.36-3.21-1.21-4.65C296.07,123.36,296.46,124.97,296.43,126.57L296.43,126.57z"/>
	<path fill="#5B9DD9" d="M292.78,119.24c0.17,0.12,0.33,0.26,0.49,0.4C293.11,119.5,292.95,119.36,292.78,119.24z"/>
	<path fill="#5B9DD9" d="M294.23,120.55c-0.22-0.25-0.45-0.48-0.69-0.7C293.78,120.07,294.01,120.3,294.23,120.55z"/>
	<polygon fill="#5B9DD9" points="297,108 287.43,117.57 297,108 298.37,98.4 298.37,98.4 	"/>
	<polygon fill="#5B9DD9" points="336.8,145.57 315,171 309.84,171.65 309.84,171.65 315,171 336.8,145.57 	"/>
	<path fill="#5B9DD9" d="M287.61,117.57c-0.06,0-0.12,0-0.18,0c0.19,0,0.39,0.01,0.58,0.02
		C287.88,117.58,287.74,117.57,287.61,117.57z"/>
	<path fill="#5B9DD9" d="M327.15,181.41l-4.03,4.7l-6.14,0.77l-0.84,0.11c5.09,14.74,7.86,30.55,7.86,47.02
		c0,79.53-64.47,144-144,144S36,313.53,36,234S100.47,90,180,90c16.47,0,32.28,2.77,47.02,7.86l0.11-0.84l0.77-6.14l4.7-4.03
		l20.36-17.45C230.64,59.51,205.97,54,180,54C80.59,54,0,134.59,0,234s80.59,180,180,180s180-80.59,180-180
		c0-25.97-5.51-50.64-15.4-72.94L327.15,181.41z"/>
	<path fill="#5B9DD9" d="M291.98,118.72c0.16,0.09,0.32,0.2,0.47,0.3C292.3,118.92,292.14,118.81,291.98,118.72z"/>
	<path fill="#5B9DD9" d="M288.44,117.61c0.17,0.02,0.33,0.04,0.5,0.07C288.77,117.65,288.61,117.63,288.44,117.61z"/>
	<path fill="#5B9DD9" d="M289.36,117.75c0.16,0.03,0.33,0.08,0.49,0.12C289.69,117.82,289.53,117.78,289.36,117.75z"/>
	<path fill="#5B9DD9" d="M291.14,118.3c0.16,0.07,0.32,0.15,0.48,0.24C291.46,118.46,291.3,118.37,291.14,118.3z"/>
	<path fill="#5B9DD9" d="M290.26,117.98c0.16,0.05,0.32,0.12,0.48,0.18C290.58,118.09,290.43,118.03,290.26,117.98z"/>
</g>
<g>
	<line fill="#F7931E" x1="180" y1="234" x2="216" y2="198"/>
	<path fill="#1A1A1A" d="M178.7,232.7l33.76-38.24c1.83-2.07,5-2.27,7.07-0.44c2.07,1.83,2.27,5,0.44,7.07
		c-0.13,0.15-0.29,0.31-0.44,0.44L181.3,235.3c-0.76,0.67-1.92,0.6-2.6-0.16C178.08,234.43,178.1,233.39,178.7,232.7z"/>
</g>
<g>
	<line x1="207" y1="207" x2="288" y2="126"/>
	<path fill="#006837" d="M195.69,195.69l86.08-75.92c3.66-3.23,9.24-2.87,12.46,0.78c2.98,3.38,2.91,8.39,0,11.68l-75.92,86.08
		c-5.86,6.64-15.99,7.28-22.63,1.42c-6.64-5.86-7.28-15.99-1.42-22.63C194.69,196.62,195.22,196.11,195.69,195.69z"/>
</g>
<polygon fill="#F7931E" points="234,171 243,99 306,45 297,108 "/>
<polygon fill="#F7931E" points="243,180 315,171 369,108 306,117 "/>
<g>
	<path fill="#D63636" d="M144,234c0,19.88,16.12,36,36,36c18.43,0,33.61-13.85,35.74-31.7c-3.03,0.93-6.2,1.43-9.43,1.43
		c-1.81,0-3.59-0.15-5.35-0.45l-9.07,8.01c-3.26,2.88-7.46,4.47-11.81,4.47c-5.11,0-9.99-2.2-13.37-6.03
		c-5.95-6.74-5.95-16.9,0-23.61l8.01-9.08c-0.83-4.93-0.48-10,0.98-14.77C157.85,200.39,144,215.57,144,234z"/>
	<path fill="#D63636" d="M279.35,191.58l-18.12,2.27l-13.59,15.41c2.82,7.72,4.36,16.05,4.36,24.74c0,39.76-32.24,72-72,72
		s-72-32.24-72-72c0-39.76,32.24-72,72-72c8.69,0,17.03,1.54,24.74,4.36l15.41-13.59l2.27-18.12C209.4,129.09,195.06,126,180,126
		c-59.65,0-108,48.35-108,108c0,59.65,48.35,108,108,108s108-48.35,108-108C288,218.94,284.91,204.6,279.35,191.58z"/>
</g>
<g opacity="0.25">
	<g>
		<line x1="180" y1="234" x2="234" y2="288"/>
		<path d="M181.14,232.86l56.39,51.61c2.04,1.87,2.18,5.03,0.31,7.07c-1.87,2.04-5.03,2.18-7.07,0.31c-0.11-0.1-0.22-0.21-0.31-0.31
			l-51.61-56.39c-0.6-0.66-0.56-1.68,0.1-2.28C179.58,232.29,180.53,232.3,181.14,232.86z"/>
	</g>
	<g>
		<path d="M307.28,361.28c-3.78,3.78-7.72,7.38-11.82,10.81"/>
		<path d="M318.08,349.46c-3.43,4.1-7.03,8.05-10.81,11.82"/>
		<path d="M307.28,361.28c3.78-3.78,7.38-7.72,10.81-11.82l-63.77-63.77c-6.25-6.25-16.38-6.25-22.63,0
			c-6.25,6.25-6.25,16.38,0,22.63l63.77,63.77"/>
	</g>
</g>
</svg>
