<?xml version="1.0" encoding="utf-8"?>
<!-- Generator: Adobe Illustrator 25.2.3, SVG Export Plug-In . SVG Version: 6.00 Build 0)  -->
<svg version="1.1" id="Icon_Set_Artwork" xmlns="http://www.w3.org/2000/svg" xmlns:xlink="http://www.w3.org/1999/xlink" x="0px"
	 y="0px" viewBox="0 0 1521 414" enable-background="new 0 0 1521 414" xml:space="preserve">
<path fill="#FFFFFF" d="M375.49,86.96l-52.38,7.48l7.48-52.38L336.6,0l-32.26,27.65l-63,54l-4.7,4.03l-0.77,6.14l-0.07,0.53
	c-14.68-5.04-30.42-7.79-46.81-7.79c-79.53,0-144,64.47-144,144s64.47,144,144,144s144-64.47,144-144c0-16.39-2.74-32.14-7.79-46.82
	l0.52-0.07l6.14-0.77l4.03-4.7l54-63l27.65-32.26L375.49,86.96z"/>
<g>
	<path fill="#5B9DD9" d="M305.43,121.13c0.03-1.6-0.36-3.21-1.21-4.65C305.07,117.91,305.46,119.53,305.43,121.13L305.43,121.13z"/>
	<path fill="#5B9DD9" d="M301.78,113.8c0.17,0.12,0.33,0.26,0.49,0.4C302.11,114.06,301.95,113.92,301.78,113.8z"/>
	<path fill="#5B9DD9" d="M303.23,115.11c-0.22-0.25-0.45-0.48-0.69-0.7C302.78,114.63,303.01,114.86,303.23,115.11z"/>
	<polygon fill="#5B9DD9" points="306,102.56 296.43,112.13 306,102.56 307.37,92.96 307.37,92.96 	"/>
	<polygon fill="#5B9DD9" points="345.8,140.12 324,165.56 318.84,166.2 318.84,166.2 324,165.56 345.8,140.12 	"/>
	<path fill="#5B9DD9" d="M296.61,112.13c-0.06,0-0.12,0-0.18,0c0.19,0,0.39,0.01,0.58,0.02
		C296.88,112.14,296.74,112.13,296.61,112.13z"/>
	<path fill="#5B9DD9" d="M336.15,175.97l-4.03,4.7l-6.14,0.77l-0.84,0.11c5.09,14.74,7.86,30.55,7.86,47.02
		c0,79.53-64.47,144-144,144s-144-64.47-144-144s64.47-144,144-144c16.47,0,32.28,2.77,47.02,7.86l0.11-0.84l0.77-6.14l4.7-4.03
		l20.36-17.45c-22.3-9.9-46.98-15.4-72.94-15.4c-99.41,0-180,80.59-180,180s80.59,180,180,180s180-80.59,180-180
		c0-25.97-5.51-50.64-15.4-72.94L336.15,175.97z"/>
	<path fill="#5B9DD9" d="M300.98,113.28c0.16,0.09,0.32,0.2,0.47,0.3C301.3,113.48,301.14,113.37,300.98,113.28z"/>
	<path fill="#5B9DD9" d="M297.44,112.17c0.17,0.02,0.33,0.04,0.5,0.07C297.77,112.21,297.61,112.18,297.44,112.17z"/>
	<path fill="#5B9DD9" d="M298.36,112.3c0.16,0.03,0.33,0.08,0.49,0.12C298.69,112.38,298.53,112.34,298.36,112.3z"/>
	<path fill="#5B9DD9" d="M300.14,112.86c0.16,0.07,0.32,0.15,0.48,0.24C300.46,113.01,300.3,112.93,300.14,112.86z"/>
	<path fill="#5B9DD9" d="M299.26,112.53c0.16,0.05,0.32,0.12,0.48,0.18C299.58,112.65,299.43,112.58,299.26,112.53z"/>
</g>
<g>
	<line fill="#F7931E" x1="189" y1="228.56" x2="225" y2="192.56"/>
	<path fill="#1A1A1A" d="M187.7,227.26l33.76-38.24c1.83-2.07,5-2.27,7.07-0.44c2.07,1.83,2.27,5,0.44,7.07
		c-0.13,0.15-0.29,0.31-0.44,0.44l-38.24,33.76c-0.76,0.67-1.92,0.6-2.6-0.16C187.08,228.99,187.1,227.95,187.7,227.26z"/>
</g>
<g>
	<line x1="216" y1="201.56" x2="297" y2="120.56"/>
	<path fill="#006837" d="M204.69,190.24l86.08-75.92c3.66-3.23,9.24-2.87,12.46,0.78c2.98,3.38,2.91,8.39,0,11.68l-75.92,86.08
		c-5.86,6.64-15.99,7.28-22.63,1.42c-6.64-5.86-7.28-15.99-1.42-22.63C203.69,191.18,204.22,190.67,204.69,190.24z"/>
</g>
<polygon fill="#F7931E" points="243,165.56 252,93.56 315,39.56 306,102.56 "/>
<polygon fill="#F7931E" points="252,174.56 324,165.56 378,102.56 315,111.56 "/>
<g>
	<g>
		<path fill="#5B9DD9" d="M435.6,246.4c0-80,50.2-129,104-129c27.8,0,45.4,10.4,64.4,27l-2.2-39.6v-89h57.6V369h-47.2l-4.4-26.6
			h-1.6C588,360.6,562.8,375,536.4,375C475.2,375,435.6,327.4,435.6,246.4z M601.8,299.8V185.4c-16.8-15-33.4-20.4-50-20.4
			c-31.2,0-57,29.6-57,80.8c0,53.4,20.4,81.6,55.8,81.6C569.6,327.4,585.6,319,601.8,299.8z"/>
		<path fill="#5B9DD9" d="M719.4,303c0-52.6,43.6-80,144.4-90.8c-0.8-26.4-11.4-48.4-44.6-48.4c-24.4,0-47.4,11-69,24.2L729,149.6
			c27-17,61.8-32.2,100.8-32.2c61.4,0,91.6,37.8,91.6,106.2V369h-47.2l-4.4-27.2h-1.6C846.2,360.6,821,375,792,375
			C749,375,719.4,345.8,719.4,303z M863.8,303.2V248c-66.6,8.4-88.8,25.8-88.8,50.6c0,21.7,14.8,31.2,35.4,31.2
			C830.4,329.8,845.6,320,863.8,303.2z"/>
		<path fill="#5B9DD9" d="M990.59,123.4h47.2l4.4,43.8h1.6c17.5-32,43.5-49.8,69.8-49.8c12.5,0,20.4,1.6,27.8,5l-10,50
			c-8.6-2.4-15-4-25.2-4c-19.6,0-43.2,13.4-58,50.8V369h-57.6V123.4z"/>
		<path fill="#5B9DD9" d="M1185.69,286.2v-117h-35V126l38-2.6l6.8-67h47.8v67h62.6v45.8h-62.6v116.9c0,28.9,11.2,43.1,34.8,43.1
			c8.4,0,18.4-2.8,25.6-5.6l9.8,42.4c-13.4,4.4-30.5,9-50.2,9C1206.69,375,1185.69,339.2,1185.69,286.2z"/>
		<path fill="#5B9DD9" d="M1333.18,340.8l26.8-36.6c21.8,17,42.9,27.4,67.8,27.4c26.8,0,39.4-12.6,39.4-29.4
			c0-20.6-26.6-29.8-52.8-39.8c-32.2-12.1-69-30.6-69-71.6c0-42.6,34.4-73.4,89.4-73.4c34.2,0,61.6,13.9,81.6,29.4l-26.4,35.4
			c-17.2-12.6-34.5-21.4-53.8-21.4c-24.7,0-36.4,11.8-36.4,27.2c0,19.4,24.8,26.8,51.4,36.6c33.2,12.4,70.4,28.4,70.4,74.2
			c0,42.2-33.4,76.2-95.4,76.2C1392.58,375,1357.18,360.6,1333.18,340.8z"/>
	</g>
</g>
<g>
	<path fill="#D63636" d="M153,228.56c0,19.88,16.12,36,36,36c18.43,0,33.61-13.85,35.74-31.7c-3.03,0.93-6.2,1.43-9.43,1.43
		c-1.81,0-3.59-0.15-5.35-0.45l-9.07,8.01c-3.26,2.88-7.46,4.47-11.81,4.47c-5.11,0-9.99-2.2-13.37-6.03
		c-5.95-6.74-5.95-16.9,0-23.61l8.01-9.08c-0.83-4.93-0.48-10,0.98-14.77C166.85,194.95,153,210.13,153,228.56z"/>
	<path fill="#D63636" d="M288.35,186.14l-18.12,2.27l-13.59,15.41c2.82,7.72,4.36,16.05,4.36,24.74c0,39.76-32.24,72-72,72
		s-72-32.24-72-72c0-39.76,32.24-72,72-72c8.69,0,17.03,1.54,24.74,4.36l15.41-13.59l2.27-18.12c-13.02-5.57-27.36-8.65-42.42-8.65
		c-59.65,0-108,48.35-108,108c0,59.65,48.35,108,108,108s108-48.35,108-108C297,213.5,293.91,199.16,288.35,186.14z"/>
</g>
<g opacity="0.25">
	<g>
		<line x1="189" y1="228.56" x2="243" y2="282.56"/>
		<path d="M190.14,227.42l56.39,51.61c2.04,1.87,2.18,5.03,0.31,7.07c-1.87,2.04-5.03,2.18-7.07,0.31c-0.11-0.1-0.22-0.21-0.31-0.31
			l-51.61-56.39c-0.6-0.66-0.56-1.68,0.1-2.28C188.58,226.85,189.53,226.86,190.14,227.42z"/>
	</g>
	<g>
		<path d="M316.28,355.84c-3.78,3.78-7.72,7.38-11.82,10.81"/>
		<path d="M327.08,344.02c-3.43,4.1-7.03,8.05-10.81,11.82"/>
		<path d="M316.28,355.84c3.78-3.78,7.38-7.72,10.81-11.82l-63.77-63.77c-6.25-6.25-16.38-6.25-22.63,0
			c-6.25,6.25-6.25,16.38,0,22.63l63.77,63.77"/>
	</g>
</g>
</svg>
